HIERARCHY
ROOT Hips
{
	OFFSET 0.000000 0.000000 0.000000
	CHANNELS 6 Xposition Yposition Zposition Zrotation Yrotation Xrotation
	JOINT LHipJoint
	{
		OFFSET 0.000000 0.000000 0.000000
		CHANNELS 3 Zrotation Yrotation Xrotation
		JOINT LeftUpLeg
		{
			OFFSET 1.363060 -1.794630 0.839290
			CHANNELS 3 Zrotation Yrotation Xrotation
			JOINT LeftLeg
			{
				OFFSET 2.448110 -6.726130 0.000000
				CHANNELS 3 Zrotation Yrotation Xrotation
				JOINT LeftFoot
				{
					OFFSET 2.562200 -7.039590 0.000000
					CHANNELS 3 Zrotation Yrotation Xrotation
					JOINT LeftToeBase
					{
						OFFSET 0.157640 -0.433110 2.322550
						CHANNELS 3 Zrotation Yrotation Xrotation
						End Site
						{
							OFFSET 0.000000 0.000000 0.000000
						}
					}
				}
			}
		}
	}
	JOINT RHipJoint
	{
		OFFSET 0.000000 0.000000 0.000000
		CHANNELS 3 Zrotation Yrotation Xrotation
		JOINT RightUpLeg
		{
			OFFSET -1.305520 -1.794630 0.839290
			CHANNELS 3 Zrotation Yrotation Xrotation
			JOINT RightLeg
			{
				OFFSET -2.542530 -6.985550 0.000000
				CHANNELS 3 Zrotation Yrotation Xrotation
				JOINT RightFoot
				{
					OFFSET -2.568260 -7.056230 0.000000
					CHANNELS 3 Zrotation Yrotation Xrotation
					JOINT RightToeBase
					{
						OFFSET -0.164730 -0.452590 2.363150
						CHANNELS 3 Zrotation Yrotation Xrotation
						End Site
						{
							OFFSET 0.000000 0.000000 0.000000
						}
					}
				}
			}
		}
	}
	JOINT LowerBack
	{
		OFFSET 0.000000 0.000000 0.000000
		CHANNELS 3 Zrotation Yrotation Xrotation
		JOINT Spine
		{
			OFFSET 0.028270 2.035590 -0.193380
			CHANNELS 3 Zrotation Yrotation Xrotation
			JOINT Spine1
			{
				OFFSET 0.056720 2.048850 -0.042750
				CHANNELS 3 Zrotation Yrotation Xrotation
				JOINT Neck
				{
					OFFSET 0.000000 0.000000 0.000000
					CHANNELS 3 Zrotation Yrotation Xrotation
					JOINT Neck1
					{
						OFFSET -0.054170 1.746240 0.172020
						CHANNELS 3 Zrotation Yrotation Xrotation
						JOINT Head
						{
							OFFSET 0.104070 1.761360 -0.123970
							CHANNELS 3 Zrotation Yrotation Xrotation
							End Site
							{
								OFFSET 0.000000 0.000000 0.000000
							}
						}
					}
				}
				JOINT LeftShoulder
				{
					OFFSET 0.000000 0.000000 0.000000
					CHANNELS 3 Zrotation Yrotation Xrotation
					JOINT LeftArm
					{
						OFFSET 3.362410 1.200890 -0.311210
						CHANNELS 3 Zrotation Yrotation Xrotation
						JOINT LeftForeArm
						{
							OFFSET 4.983000 -0.000000 -0.000000
							CHANNELS 3 Zrotation Yrotation Xrotation
							JOINT LeftHand
							{
								OFFSET 3.483560 -0.000000 -0.000000
								CHANNELS 3 Zrotation Yrotation Xrotation
								JOINT LeftFingerBase
								{
									OFFSET 0.000000 0.000000 0.000000
									CHANNELS 3 Zrotation Yrotation Xrotation
									JOINT LeftHandIndex1
									{
										OFFSET 0.715260 -0.000000 -0.000000
										CHANNELS 3 Zrotation Yrotation Xrotation
										End Site
										{
											OFFSET 0.000000 0.000000 0.000000
										}
									}
								}
								JOINT LThumb
								{
									OFFSET 0.000000 0.000000 0.000000
									CHANNELS 3 Zrotation Yrotation Xrotation
									End Site
									{
										OFFSET 0.000000 0.000000 0.000000
									}
								}
							}
						}
					}
				}
				JOINT RightShoulder
				{
					OFFSET 0.000000 0.000000 0.000000
					CHANNELS 3 Zrotation Yrotation Xrotation
					JOINT RightArm
					{
						OFFSET -3.136600 1.374050 -0.404650
						CHANNELS 3 Zrotation Yrotation Xrotation
						JOINT RightForeArm
						{
							OFFSET -5.241900 -0.000000 -0.000000
							CHANNELS 3 Zrotation Yrotation Xrotation
							JOINT RightHand
							{
								OFFSET -3.444170 -0.000000 -0.000000
								CHANNELS 3 Zrotation Yrotation Xrotation
								JOINT RightFingerBase
								{
									OFFSET 0.000000 0.000000 0.000000
									CHANNELS 3 Zrotation Yrotation Xrotation
									JOINT RightHandIndex1
									{
										OFFSET -0.622530 -0.000000 -0.000000
										CHANNELS 3 Zrotation Yrotation Xrotation
										End Site
										{
											OFFSET 0.000000 0.000000 0.000000
										}
									}
								}
								JOINT RThumb
								{
									OFFSET 0.000000 0.000000 0.000000
									CHANNELS 3 Zrotation Yrotation Xrotation
									End Site
									{
										OFFSET 0.000000 0.000000 0.000000
									}
								}
							}
						}
					}
				}
			}
		}
	}
}
MOTION
Frames: 13
Frame Time: 0.008333
0.003093 -0.002080 0.099971 -0.053687 0.022919 0.084421 -0.068517 -0.024332 -0.034122 0.185321 -0.207710 0.085183 -0.433562 -0.355956 -1.480139 0.055413 -0.193370 0.111977 -0.000791 0.006100 0.016946 0.026920 -0.003927 0.037896 -0.008680 -0.216349 0.334564 0.057791 0.099431 -0.293590 -0.013821 0.037801 -0.062406 0.010337 0.072697 -0.202331 0.190337 0.026017 -0.041459 -0.104598 0.055421 -0.019272 -0.157260 0.018931 0.023780 0.133909 -0.020688 -0.123189 -0.017462 -0.045126 0.104847 -0.033383 -0.009151 0.050724 0.007152 0.008301 -0.001464 0.007071 0.149474 -0.064527 -0.043039 0.068531 0.013240 0.000790 0.012135 0.038545 -0.207378 -0.674958 -0.418387 0.000000 0.000000 0.000000 -0.090207 -0.792659 -0.010111 -0.006267 0.008074 0.003017 0.021058 0.145751 0.507562 -0.209194 0.303504 -0.087327 0.002938 0.023756 -0.230660 -0.353285 -0.301499 -0.034682 -0.000000 0.000000 0.000000 -0.250795 -0.282653 -0.248140
-0.128440 -0.017538 0.165450 0.317878 0.257013 -0.124196 -0.216610 0.014192 -0.106264 -0.076694 -0.344958 0.404060 -0.514494 -0.409440 -1.829806 0.118906 -1.722697 1.308158 0.006545 -2.055939 -0.932746 0.510065 -0.016233 -0.231169 0.209346 -0.728216 -0.145892 0.372075 -0.349391 -0.925615 -0.077974 -0.010901 -1.882524 -0.017391 -0.028987 2.263340 0.284981 -0.103129 -0.116028 -0.048049 -0.002743 -0.017324 -0.374168 -0.064348 1.240711 0.119799 -0.009786 -0.070959 -0.740225 0.369754 0.596153 0.086465 0.506546 -0.212399 -0.054935 0.009088 -0.006399 -0.040109 0.297556 0.188074 0.254961 0.006529 0.053986 0.024193 -0.112822 1.486722 0.218274 -1.242605 0.276760 0.007253 0.000000 0.000000 0.670611 0.739585 1.333899 0.200439 0.059577 0.039415 0.903859 0.458428 1.774036 -0.163595 0.656821 0.288275 -0.011520 0.066042 0.034354 1.941563 0.417359 1.403986 0.063019 0.000000 0.000000 0.929758 0.275385 -0.048654
-0.138797 -0.097563 0.278391 0.594901 0.200013 -0.337545 -0.267411 0.138225 -0.116514 -0.102005 -0.271353 1.005580 -0.527360 -0.284157 -1.524402 0.258737 -3.147236 3.512184 0.128250 -4.331616 1.923563 1.190807 -0.044736 -0.312172 0.457192 -1.284535 -0.307866 0.737340 -0.943687 -0.953281 0.045615 0.224805 -1.841286 0.064821 -0.103551 5.939918 -0.011316 -0.308066 -0.272284 -0.094494 0.011410 -0.027534 -0.786785 -0.087091 2.026269 -0.024005 -0.011867 -0.181330 -1.220641 0.617160 0.808863 0.316146 0.811391 -0.528486 -0.050976 -0.050363 0.005498 -0.119387 0.393860 0.186684 0.539024 -0.048871 0.125111 0.055119 -0.231954 2.982434 0.431140 -2.226807 0.936789 -0.017227 0.000000 0.000000 0.768270 1.254281 1.742172 0.238579 0.032128 0.033579 1.099752 0.513969 2.468507 -0.391920 0.849855 0.576978 -0.049527 0.091626 0.153657 3.101062 0.625205 1.987944 0.096806 0.000000 0.000000 1.649157 0.542743 -1.099239
-0.094917 -0.068606 0.890119 0.964128 0.258211 -0.420826 -0.194770 0.294747 -0.106884 -0.060608 -0.153800 1.674897 -0.542692 -0.233684 -1.611994 0.225800 -5.185350 4.960225 0.072086 -7.413517 2.984065 1.127756 -0.339277 -0.627194 -0.066174 -2.064581 -0.662115 1.123101 -1.549446 -0.510285 0.279563 0.876579 -0.631265 0.283413 0.121616 10.887070 -0.124292 -0.346432 0.126466 -0.033440 0.211702 0.078355 -1.250629 -0.102977 2.772339 -0.209511 -0.024584 -0.529276 -1.722057 0.739486 0.938825 0.654686 1.107427 -0.851404 0.002398 -0.091395 0.025880 -0.121537 0.489470 0.482555 0.935189 -0.015515 0.216352 0.074648 -0.379754 4.187910 0.435099 -3.459092 1.435620 -0.070805 0.000000 0.000000 0.633674 1.336741 1.857652 0.226263 -0.037696 0.012605 1.031729 0.515120 3.090338 -0.700746 0.954207 0.725199 -0.105306 0.105464 0.173896 3.384212 0.454409 1.910723 0.110362 0.000000 0.000000 1.592803 0.358238 -2.887401
-0.012260 -0.231169 0.966388 1.123614 0.092029 -0.576402 -0.171858 0.408828 -0.114203 0.004562 -0.001774 1.437542 -0.491521 0.063525 -0.556532 0.280708 -5.426135 6.848414 -0.109189 -8.580262 7.581229 0.779915 -0.372454 -0.368536 0.089468 -2.020513 0.645737 1.183263 -2.406209 0.739482 0.350968 0.675718 0.098469 0.335426 0.404355 13.332913 -1.052250 -0.416895 -0.294171 -0.169441 0.403991 -0.141586 -1.748716 0.054798 2.928536 -0.306032 -0.295258 -1.179134 -1.445829 0.459976 1.409976 1.056993 0.939908 -0.953038 0.046390 -0.167830 0.031905 -0.514176 0.412781 -0.078129 0.931089 -0.167769 0.240973 0.055394 -0.411808 4.782960 0.189246 -3.602038 1.834486 -0.131712 0.000000 0.000000 0.311912 1.056585 1.670665 0.196807 -0.103672 -0.019855 0.979214 0.505000 3.067838 -0.872580 1.114807 0.560526 -0.135126 0.110604 0.073443 3.038855 0.224251 1.283348 0.109819 0.000000 0.000000 0.904374 -0.566684 -4.623016
0.045562 -0.531617 0.629361 1.201738 -0.290067 -0.857221 -0.265476 0.447195 -0.169457 -0.101564 0.003308 0.958428 -0.474444 0.234459 0.323812 0.409088 -5.140142 8.070772 -0.444479 -9.531147 11.035786 -0.347350 -0.459259 -0.167489 -0.211245 -2.039337 1.934089 1.242380 -3.008543 2.368658 0.350842 -0.025513 0.599110 0.348232 0.868169 16.620102 -1.312637 -0.125545 -0.078908 -0.140339 0.839550 -0.082718 -2.003940 0.332345 3.033621 0.138174 -0.384466 -1.518530 -1.095943 -0.178230 1.760703 0.966937 0.537727 -1.020829 -0.000593 -0.287510 0.007008 -1.793011 -0.008381 -1.361993 0.804052 -0.376182 0.244677 0.031943 -0.427619 4.541735 -0.399756 -4.505890 1.593537 -0.247226 0.000000 0.000000 -1.112069 -0.768136 0.134180 -0.092198 -0.283893 -0.101270 0.288506 0.251093 2.399669 -1.385783 0.912294 0.259733 -0.167243 0.075518 -0.419234 -0.291758 -1.125641 -1.192852 0.059532 0.000000 0.000000 -1.347853 -2.584284 -8.144587
0.078723 -0.655798 0.884611 1.363587 -0.336894 -1.040994 -0.269544 0.540253 -0.188468 -0.010448 0.128689 0.788065 -0.439455 0.422529 0.836887 0.446137 -5.114486 8.687651 -0.712893 -9.691721 10.252497 -1.471842 -0.563704 -0.600195 -1.102275 -2.774449 1.706403 1.051199 -3.667124 3.473862 0.133820 -0.845355 -1.533671 0.296688 0.954279 16.525373 -1.303342 -0.014111 -0.370785 -0.049333 0.999671 -0.235915 -2.415417 0.346936 3.513862 0.347527 -0.567995 -1.321294 -1.185522 -0.644945 2.521389 0.804914 0.539408 -1.047940 -0.043389 -0.028638 0.004668 -1.470252 0.026993 -2.070707 0.987695 -0.232275 0.311996 0.024527 -0.432676 4.859399 -0.301955 -4.182129 1.685681 -0.285389 0.000000 0.000000 -0.716363 -0.554614 0.918932 0.045291 -0.268330 -0.100934 0.643494 0.357551 2.751955 -1.305473 1.110682 0.180397 -0.161272 0.087787 -0.447040 -0.347403 -1.128186 -1.145260 0.076828 0.000000 0.000000 -0.574866 -2.770696 -7.088443
0.105032 -0.801931 0.990489 1.500230 -0.396016 -1.255836 -0.296759 0.622665 -0.219728 0.038539 0.215223 0.580603 -0.407450 0.620371 1.409934 0.520836 -4.872416 9.866119 -0.773929 -9.145733 10.986665 -1.457639 -0.247807 -0.356407 0.220857 -2.569210 2.786446 1.077206 -3.866086 5.664019 0.129194 -0.752571 -2.991599 0.330345 1.100554 16.242046 -1.211961 0.025785 -0.892603 -0.040630 1.010780 -0.522928 -2.912539 0.317243 3.948333 0.366516 -0.822296 -1.179499 -1.369302 -1.014563 3.509131 0.722149 0.623584 -1.101196 -0.177105 0.153775 -0.024605 -1.635585 -0.190866 -3.511550 0.999646 -0.378841 0.303350 -0.005398 -0.494992 4.640003 -0.292529 -4.027603 1.679761 -0.335711 0.000000 0.000000 -0.626832 -0.717242 1.617375 0.140847 -0.301812 -0.116871 0.636345 0.324854 2.964566 -1.454178 1.056905 -0.020939 -0.168248 0.089423 -0.547802 -0.775731 -1.271506 -1.299804 0.087489 0.000000 0.000000 -0.221087 -3.195662 -6.568270
0.117166 -0.969585 0.991672 1.651769 -0.456197 -1.577959 -0.401435 0.665344 -0.257910 -0.016048 0.213082 0.152447 -0.461820 0.585720 1.200056 0.490382 -5.200279 10.017192 -0.865860 -9.163795 9.867226 -1.271578 -0.043822 -0.207647 1.385962 -2.792061 2.949805 1.000039 -4.090458 7.448187 0.096573 -1.171288 -4.689824 0.517424 1.325834 16.796392 -0.808851 0.001422 -1.159006 -0.068660 1.023445 -0.594587 -3.368730 0.422580 4.728740 0.311190 -0.933309 -1.248252 -1.685150 -1.181435 4.408726 0.740089 0.760694 -1.366620 -0.422478 0.262017 -0.062583 -1.440895 -0.407071 -4.346548 1.069871 -0.503347 0.298561 -0.041947 -0.570340 4.195662 -0.272356 -4.139121 1.556538 -0.390539 0.000000 0.000000 -0.457651 -1.302093 2.236856 0.174255 -0.363434 -0.131186 0.488979 0.334605 3.272663 -1.626377 0.986052 -0.233528 -0.181056 0.085708 -0.683710 -2.136400 -1.868312 -1.909843 0.080470 0.000000 0.000000 -0.876009 -3.967216 -6.870596
0.206178 -1.090930 1.144044 1.844903 -0.491001 -1.820633 -0.434536 0.706445 -0.247410 -0.060057 0.222914 -0.308516 -0.502498 0.553751 0.985704 0.494271 -5.681724 10.276954 -0.857866 -8.928447 9.243852 -1.182850 0.021278 -0.186504 1.901625 -3.201002 2.684814 0.816006 -4.210351 9.475405 0.177997 -1.383323 -4.935235 0.779625 1.512873 17.447115 -0.496056 -0.029379 -1.192663 -0.056282 1.212440 -0.484182 -3.757762 0.610082 5.440087 0.450666 -0.777563 -0.965316 -1.861508 -1.249069 5.242136 0.812084 0.863938 -1.521031 -0.489675 0.460195 -0.033192 -0.033803 -0.257075 -4.077772 1.294419 -0.288483 0.375670 -0.055213 -0.599602 4.256087 0.093774 -3.715018 1.617594 -0.411985 0.000000 0.000000 0.080302 -1.327994 3.519472 0.261212 -0.365032 -0.130173 0.476545 0.404679 3.740690 -1.551569 1.143034 -0.288585 -0.175040 0.104560 -0.602291 -1.766881 -1.756020 -1.362331 0.101453 0.000000 0.000000 0.099611 -3.681367 -5.491755
0.276643 -1.264862 1.156630 2.012469 -0.577975 -2.055623 -0.452397 0.726238 -0.214899 -0.121627 0.256201 -0.656554 -0.474165 0.643195 1.094068 0.562117 -6.045637 10.554129 -0.862595 -8.624806 9.561239 -1.216321 0.028356 0.015065 2.043492 -3.356735 2.769229 0.532264 -4.445807 11.295706 0.164850 -2.605386 -5.081921 0.906323 1.470179 18.288967 -0.473306 -0.062282 -1.177136 -0.152574 1.479675 -0.546621 -4.243776 0.816868 5.612764 0.462721 -0.739202 -1.026401 -1.985294 -1.546411 5.768389 0.921752 0.798024 -1.713763 -0.559495 0.391155 -0.032328 0.287175 -0.530475 -4.321943 1.339659 -0.224906 0.401143 -0.084462 -0.636086 3.996256 0.270382 -3.410853 1.629270 -0.443877 0.000000 0.000000 0.179282 -1.744443 4.584282 0.298626 -0.368884 -0.130391 0.466414 0.456778 4.059402 -1.529802 1.248631 -0.419218 -0.174748 0.112611 -0.625159 -1.923504 -1.803464 -1.252760 0.109441 0.000000 0.000000 0.238386 -3.858193 -5.173795
0.354051 -1.410477 1.309334 2.200527 -0.644512 -2.250267 -0.430730 0.763782 -0.166859 -0.177096 0.313943 -1.011312 -0.455025 0.701455 1.120352 0.618845 -6.462306 10.788396 -0.875014 -8.350633 9.863464 -1.284333 0.011075 0.199800 2.131780 -3.447467 2.881106 0.262802 -4.641200 13.298503 0.156727 -3.807070 -5.024957 1.036189 1.459724 19.155605 -0.479864 -0.113595 -1.202241 -0.275124 1.722375 -0.680097 -4.752015 1.013467 5.704331 0.458384 -0.700391 -1.071665 -2.100904 -1.835981 6.312084 1.060554 0.741515 -1.851851 -0.553529 0.369071 -0.019564 0.868619 -0.733282 -4.338868 1.447667 -0.080530 0.436030 -0.109678 -0.654490 3.902277 0.517681 -2.995324 1.708955 -0.465721 0.000000 0.000000 0.406659 -2.067944 5.770057 0.338699 -0.375946 -0.131998 0.469499 0.520013 4.384868 -1.475701 1.389017 -0.522210 -0.171239 0.124453 -0.611534 -1.796940 -1.710936 -0.910267 0.123510 0.000000 0.000000 0.780744 -3.768697 -4.408708
0.433511 -1.463336 1.932137 2.394534 -0.728397 -2.329985 -0.345678 0.824026 -0.092671 -0.289345 0.389262 -0.953291 -0.352407 0.746842 1.134984 0.671643 -6.846776 11.176773 -0.873450 -8.035730 10.396123 -1.404478 -0.018302 0.290808 1.905613 -3.500779 2.794422 -0.186841 -5.123907 15.403476 0.127667 -6.092113 -7.535396 0.904190 0.885774 19.814240 -0.428910 -0.258947 -1.554783 -0.513775 1.773467 -1.136022 -5.411743 1.209877 5.976006 0.405333 -0.676462 -1.207454 -2.225481 -2.249787 6.712296 1.215148 0.648697 -2.043060 -0.629285 0.249719 -0.046783 0.429732 -1.296469 -5.052958 1.341215 -0.181249 0.385862 -0.167377 -0.707320 3.563949 0.576198 -2.642219 1.758259 -0.494575 0.000000 0.000000 0.454361 -2.695191 6.770696 0.329516 -0.397030 -0.140167 0.459578 0.546240 4.622260 -1.507371 1.442232 -0.708431 -0.177549 0.124002 -0.712519 -2.424592 -1.905644 -1.059541 0.123929 0.000000 0.000000 0.757349 -3.980109 -4.340514
